<svg width="200" height="200" viewBox="0 0 200 200" fill="none" xmlns="http://www.w3.org/2000/svg">
  <rect width="200" height="200" rx="44" fill="#2C2416"/>

  <!-- Bodhi Leaf -->
  <path d="M100 26C100 26 150 54 150 96C150 123 127 140 100 140C73 140 50 123 50 96C50 54 100 26 100 26Z" fill="#E8841A" fill-opacity="0.18" stroke="#E8841A" stroke-width="2.2"/>
  <line x1="100" y1="31" x2="100" y2="139" stroke="#E8841A" stroke-width="1.6" opacity="0.95"/>
  <!-- Left veins -->
  <path d="M100 58 Q87 64 80 68" stroke="#E8841A" stroke-width="1.1" opacity="0.65" fill="none"/>
  <path d="M100 75 Q86 81 78 85" stroke="#E8841A" stroke-width="1.1" opacity="0.65" fill="none"/>
  <path d="M100 92 Q87 97 81 101" stroke="#E8841A" stroke-width="1.1" opacity="0.65" fill="none"/>
  <path d="M100 109 Q88 113 83 117" stroke="#E8841A" stroke-width="1" opacity="0.5" fill="none"/>
  <!-- Right veins -->
  <path d="M100 58 Q113 64 120 68" stroke="#E8841A" stroke-width="1.1" opacity="0.65" fill="none"/>
  <path d="M100 75 Q114 81 122 85" stroke="#E8841A" stroke-width="1.1" opacity="0.65" fill="none"/>
  <path d="M100 92 Q113 97 119 101" stroke="#E8841A" stroke-width="1.1" opacity="0.65" fill="none"/>
  <path d="M100 109 Q112 113 117 117" stroke="#E8841A" stroke-width="1" opacity="0.5" fill="none"/>
  <!-- Stem -->
  <line x1="100" y1="140" x2="100" y2="154" stroke="#E8841A" stroke-width="2"/>

  <!-- Brand name -->
  <text x="100" y="178" font-family="'Helvetica Neue', Helvetica, Arial, sans-serif" font-size="12" font-weight="300" letter-spacing="4.5" fill="#E8841A" text-anchor="middle" opacity="0.9">BODHIBIHAR</text>
</svg>
